<svg width="32" height="32" viewBox="0 0 32 32" fill="none" xmlns="http://www.w3.org/2000/svg">
<g clip-path="url(#clip0_23_155)">
<rect width="32" height="32" rx="2" fill="#BBA880"/>
<path d="M14.1818 21H9.88068V9.36364H14.1761C15.3617 9.36364 16.3826 9.59659 17.2386 10.0625C18.0985 10.5246 18.7614 11.1913 19.2273 12.0625C19.6932 12.9299 19.9261 13.9678 19.9261 15.1761C19.9261 16.3883 19.6932 17.4299 19.2273 18.3011C18.7652 19.1723 18.1042 19.8409 17.2443 20.3068C16.3845 20.7689 15.3636 21 14.1818 21ZM12.6932 18.6023H14.0739C14.7254 18.6023 15.2765 18.4924 15.7273 18.2727C16.1818 18.0492 16.5246 17.6875 16.7557 17.1875C16.9905 16.6837 17.108 16.0133 17.108 15.1761C17.108 14.339 16.9905 13.6723 16.7557 13.1761C16.5208 12.6761 16.1742 12.3163 15.7159 12.0966C15.2614 11.8731 14.7008 11.7614 14.0341 11.7614H12.6932V18.6023Z" fill="#121110"/>
</g>
<defs>
<clipPath id="clip0_23_155">
<rect width="32" height="32" rx="2" fill="white"/>
</clipPath>
</defs>
</svg>
